<?xml version="1.0" encoding="UTF-8" standalone="no"?>
<svg width="229px" height="58px" viewBox="0 0 229 58" version="1.1" xmlns="http://www.w3.org/2000/svg" xmlns:xlink="http://www.w3.org/1999/xlink" xmlns:sketch="http://www.bohemiancoding.com/sketch/ns">
    <!-- Generator: Sketch 3.3.3 (12072) - http://www.bohemiancoding.com/sketch -->
    <title>cepave-logo-w</title>
    <desc>Created with Sketch.</desc>
    <defs>
        <path d="M29,58 C45.0162577,58 58,45.0162577 58,29 C58,12.9837423 45.0162577,-7.10542736e-15 29,-7.10542736e-15 C12.9837423,-7.10542736e-15 0,12.9837423 0,29 C0,45.0162577 12.9837423,58 29,58 Z M19.8043478,37.7181664 C16.2608696,37.7181664 13.4130435,34.9168081 13.4130435,31.4787776 C13.4130435,28.0195246 16.2826087,25.2393888 19.8043478,25.2393888 C21.5652174,25.2393888 23,23.8387097 23,22.1196944 C23,20.4006791 21.5652174,19 19.8043478,19 C12.7391304,19 7,24.5814941 7,31.5 C7,38.3972835 12.7173913,44 19.8043478,44 C21.5652174,44 23,42.5993209 23,40.8803056 C23,39.1612903 21.5652174,37.7181664 19.8043478,37.7181664 Z M38.5106202,19 C31.6074766,19 26,24.5231624 26,31.3693638 L26,49.9129092 C26,51.6139592 27.4018692,53 29.1223449,53 C30.8428207,53 32.2446899,51.6139592 32.2446899,49.9129092 L32.2446899,31.3693638 C32.2446899,27.9462631 35.0484282,25.1951822 38.4893798,25.1951822 C41.9303314,25.1951822 44.7340697,27.9672637 44.7340697,31.3693638 C44.7340697,34.7924645 41.9303314,37.5435454 38.4893798,37.5435454 C36.768904,37.5435454 35.3670348,38.9295862 35.3670348,40.6306362 C35.3670348,42.3316862 36.768904,43.717727 38.4893798,43.717727 C45.3925234,43.717727 51,38.1945645 51,31.3483632 C51,24.5441631 45.4137638,19 38.5106202,19 Z" id="path-1"></path>
    </defs>
    <g id="componer" stroke="none" stroke-width="1" fill="none" fill-rule="evenodd" sketch:type="MSPage">
        <g id="cepave-logo-w" sketch:type="MSArtboardGroup">
            <g id="cepave-logo" sketch:type="MSLayerGroup">
                <g id="logo" transform="translate(69.000000, 14.000000)" fill="#FFFFFF" sketch:type="MSShapeGroup">
                    <path d="M145.579075,14.4262295 C145.579075,16.4179899 147.145871,18.032745 149.078274,18.032745 C150.044394,18.032745 150.919153,17.6290981 151.552504,16.9764602 L158.975194,9.3257681 C159.608382,8.67313021 160,7.77150134 160,6.77553739 C160,5.779741 159.608382,4.87811213 158.975194,4.22547424 L158.975194,4.22530668 C156.442278,1.61475515 152.943242,0 149.078274,0 C141.348337,0 135.081967,6.45885302 135.081967,14.4262295 C135.081967,22.393606 141.348337,28.852459 149.078274,28.852459 L153.976989,28.852459 C155.909555,28.852459 157.476188,27.2377039 157.476188,25.2459435 C157.476188,23.2540156 155.909555,21.639428 153.976989,21.639428 L149.078274,21.639428 C145.213305,21.639428 142.080039,18.4099178 142.080039,14.4262295 C142.080039,10.4425413 145.213305,7.21319853 149.078274,7.21319853 C149.70496,7.21319853 150.311975,7.29915572 150.889891,7.45850325 L146.604044,11.8759988 C145.970855,12.5288042 145.579075,13.4302656 145.579075,14.4262295" id="Fill-1"></path>
                    <path d="M94.4263133,0 C86.4589831,0 80,6.45885302 80,14.4262295 C80,22.3934384 86.458648,28.8521239 94.4256431,28.852459 L94.4263133,28.852459 C96.4180621,28.852459 98.0328078,27.2377039 98.0328078,25.2459435 C98.0328078,23.2540156 96.4180621,21.639428 94.4263133,21.639428 L94.4261457,21.639428 C90.4426482,21.6392605 87.2133242,18.4099178 87.2133242,14.4262295 C87.2133242,10.4425413 90.4426482,7.21319853 94.4263133,7.21319853 C98.4099784,7.21319853 101.639302,10.4425413 101.639302,14.4262295 L101.639302,25.2459435 C101.639302,27.2377039 103.254048,28.852459 105.245964,28.852459 C107.237713,28.852459 108.852459,27.2377039 108.852459,25.2459435 L108.852459,14.4262295 C108.852459,6.45885302 102.393476,0 94.4263133,0" id="Fill-2"></path>
                    <path d="M14.6885928,21.639428 L14.6884222,21.639428 C10.6323316,21.6392605 7.34429642,18.4099178 7.34429642,14.4262295 C7.34429642,10.4425413 10.6323316,7.21336609 14.6882516,7.21319853 L14.6885928,7.21319853 C16.7163823,7.21319853 18.3606557,5.59844339 18.3606557,3.60668305 C18.3606557,1.61475515 16.7163823,0 14.6885928,0 L14.688081,0 C6.57589968,0.00033511573 0,6.45902058 0,14.4262295 C0,22.3932709 6.57572908,28.8519563 14.6875692,28.852459 L14.6882516,28.852459 C16.7163823,28.852459 18.3606557,27.2377039 18.3606557,25.2459435 C18.3606557,23.2540156 16.7163823,21.639428 14.6885928,21.639428" id="Fill-3"></path>
                    <path d="M62.9507359,0 C54.9833131,0 48.5245902,6.40546731 48.5245902,14.3069894 L48.5245902,35.7675565 C48.5245902,37.7428539 50.1393547,39.3442623 52.130959,39.3442623 C54.1228985,39.3442623 55.7374955,37.7428539 55.7374955,35.7675565 L55.7374955,14.3069894 C55.7374955,10.3562283 58.9670245,7.15357777 62.9507359,7.15357777 C66.9344473,7.15357777 70.1639763,10.3562283 70.1639763,14.3069894 C70.1639763,18.2577504 66.9344473,21.460401 62.9509035,21.4605671 L62.9507359,21.4605671 C60.958964,21.4605671 59.3441995,23.0618093 59.3441995,25.0372729 C59.3441995,27.0125704 60.958964,28.6139787 62.9507359,28.6139787 L62.9515737,28.6139787 C70.9186613,28.6136464 77.3770492,22.2083452 77.3770492,14.3069894 C77.3770492,6.40546731 70.9181586,0 62.9507359,0" id="Fill-4"></path>
                    <path d="M31.4808771,14.4262295 C31.4808771,16.4179899 33.0473476,18.032745 34.9799131,18.032745 C35.9461959,18.032745 36.8209549,17.6290981 37.4541432,16.9764602 L44.8766708,9.3257681 C45.5100217,8.67313021 45.9016393,7.77150134 45.9016393,6.77553739 C45.9016393,5.779741 45.5100217,4.87811213 44.8768334,4.22547424 L44.8768334,4.22530668 C42.3439176,1.61475515 38.8450442,0 34.9799131,0 C27.2499762,0 20.9836066,6.45885302 20.9836066,14.4262295 C20.9836066,22.393606 27.2499762,28.852459 34.9799131,28.852459 L39.8786286,28.852459 C41.8110315,28.852459 43.3778271,27.2377039 43.3778271,25.2459435 C43.3778271,23.2540156 41.8110315,21.639428 39.8786286,21.639428 L34.9799131,21.639428 C31.1149447,21.639428 27.9818411,18.4099178 27.9818411,14.4262295 C27.9818411,10.4425413 31.1149447,7.21319853 34.9799131,7.21319853 C35.6067614,7.21319853 36.2134518,7.29915572 36.7915307,7.45850325 L32.5056831,11.8759988 C31.8724948,12.5288042 31.4808771,13.4302656 31.4808771,14.4262295" id="Fill-5"></path>
                    <path d="M124.374487,24.0128499 L124.374487,24.0128499 L117.069927,3.68571962 C117.069762,3.68538461 117.069762,3.68504959 117.069596,3.68471458 C116.397156,1.81366246 114.354366,0.848822698 112.507058,1.52990577 C110.659749,2.21098884 109.707153,4.27986661 110.379593,6.15091873 L117.684484,26.4790541 C118.356759,28.3502737 120.399383,29.3151135 122.247022,28.6340304 C124.094497,27.9529473 125.046927,25.8840695 124.374487,24.0128499" id="Fill-6"></path>
                    <path d="M130.115729,1.52990577 C128.268586,0.848822698 126.225797,1.81366246 125.553191,3.68471458 C125.553026,3.68538461 125.55286,3.68605464 125.552695,3.68672466 L118.248465,24.0128499 C117.576025,25.8840695 118.528456,27.9529473 120.375765,28.6340304 C122.223404,29.3151135 124.266028,28.3502737 124.938303,26.4790541 L132.242863,6.1525938 C132.243029,6.15209128 132.24336,6.15158875 132.24336,6.15091873 C132.9158,4.27986661 131.963204,2.21098884 130.115729,1.52990577" id="Fill-7"></path>
                </g>
                <g id="Group">
                    <mask id="mask-2" sketch:name="mask" fill="white">
                        <use xlink:href="#path-1"></use>
                    </mask>
                    <use id="mask" fill="#FFFFFF" sketch:type="MSShapeGroup" xlink:href="#path-1"></use>
                </g>
            </g>
        </g>
    </g>
</svg>