<?xml version="1.0" encoding="UTF-8" standalone="no"?>
<svg width="30px" height="30px" viewBox="0 0 30 30" version="1.1" xmlns="http://www.w3.org/2000/svg" xmlns:xlink="http://www.w3.org/1999/xlink" xmlns:sketch="http://www.bohemiancoding.com/sketch/ns">
    <!-- Generator: Sketch 3.3.3 (12072) - http://www.bohemiancoding.com/sketch -->
    <title>icon-gplus--w</title>
    <desc>Created with Sketch.</desc>
    <defs></defs>
    <g id="componer" stroke="none" stroke-width="1" fill="none" fill-rule="evenodd" sketch:type="MSPage">
        <g id="icon-gplus--w" sketch:type="MSArtboardGroup" fill="#FFFFFF">
            <g id="Oval-1-+-Path" sketch:type="MSLayerGroup">
                <path d="M15,0 C6.71572834,0 0,6.71572834 0,15 C0,23.2842717 6.71572834,30 15,30 C23.2842717,30 30,23.2842717 30,15 C30,6.71572834 23.2842717,0 15,0 Z M15,1 C7.26801312,1 1,7.26801312 1,15 C1,22.7319869 7.26801312,29 15,29 C22.7319869,29 29,22.7319869 29,15 C29,7.26801312 22.7319869,1 15,1 Z M23.25514,13.3356073 L23.25514,16.577539 L21.8434902,16.577539 L21.8434902,13.3356073 L18.5496584,13.3356073 L18.5496584,11.9862995 L21.8434902,11.9862995 L21.8434902,8.77285155 L23.25514,8.77285155 L23.25514,11.9862995 L25.7697898,11.9862995 C25.9555179,12.4239608 26.1161763,12.8743185 26.25,13.3356073 L23.25514,13.3356073 Z" id="Oval-1" sketch:type="MSShapeGroup"></path>
                <path d="M6.52741318,22.8671203 C8.35574063,21.7420826 10.8181701,21.5934927 12.1497843,21.5085842 C11.737618,20.977906 11.2620415,20.4153871 11.2620415,19.492007 C11.2620415,18.9931695 11.4099986,18.6959898 11.5579557,18.3457422 C11.2303364,18.3775828 10.9132854,18.4094235 10.6173711,18.4094235 C7.49970292,18.4094235 5.73478567,16.0744395 5.73478567,13.7712962 C5.73478567,12.41276 6.35831931,10.9035112 7.61595495,9.8113755 C9.29632526,8.42418271 11.2937466,8.18750024 12.8790016,8.18750024 L18.9346757,8.18750024 L17.0535065,9.24991797 L15.2357474,9.24991797 C15.9121228,9.8113755 17.3177156,10.9926652 17.3177156,13.240618 C17.3177156,15.4270121 16.0812167,16.4565278 14.8552862,17.4329757 C14.4642566,17.815064 14.0309536,18.228993 14.0309536,18.8764203 C14.0309536,19.5238477 14.4642566,19.8847089 14.791876,20.150048 L15.8487126,20.977906 C17.1486218,22.0604895 18.3217105,23.068778 18.3217105,25.1065823 C18.3217105,26.4504387 17.6972441,27.7992527 16.4805177,28.8343743 C15.8258587,28.9415619 15.1542742,28.9981466 14.4698753,29 C15.705367,28.4557256 16.3454259,27.4598876 16.3454259,26.2634607 C16.3454259,24.7563347 15.3837045,23.9603174 13.1432108,22.3576693 C12.9107067,22.3364421 12.7627496,22.3364421 12.4668353,22.3364421 C12.2026261,22.3364421 10.6173711,22.38951 9.3808722,22.8034389 C8.73620183,23.0369374 6.85503255,23.7480461 6.85503255,25.8495318 C6.85503255,26.0779119 6.8792412,26.2993275 6.92647412,26.5125755 C3.82779262,24.2040952 5.17013652,24.5298874 4.81738281,24.5298869 C5.1701365,23.9341435 5.71710795,23.3484359 6.52741318,22.8671203 Z M11.2200761,9.4037254 C10.4805443,9.4037254 9.67938479,9.8067594 9.21717738,10.4268973 C8.73442743,11.0770958 8.59062957,11.912111 8.59062957,12.7137256 C8.59062957,13.209686 8.65357913,13.7827256 8.78281061,14.367977 C9.19607451,16.2395277 10.2871569,18.2359594 12.1650335,18.2359594 C12.8737515,18.2359594 13.6440972,17.8574192 14.1063046,17.3675436 C14.7636662,16.6549973 14.8150226,15.6641126 14.8150226,15.1074358 C14.8150226,12.8695951 13.5927408,9.4037254 11.2200761,9.4037254 Z" id="Path" sketch:type="MSShapeGroup"></path>
            </g>
        </g>
    </g>
</svg>