<?xml version="1.0" encoding="UTF-8" standalone="no"?>
<svg width="30px" height="30px" viewBox="0 0 30 30" version="1.1" xmlns="http://www.w3.org/2000/svg" xmlns:xlink="http://www.w3.org/1999/xlink" xmlns:sketch="http://www.bohemiancoding.com/sketch/ns">
    <!-- Generator: Sketch 3.3.3 (12072) - http://www.bohemiancoding.com/sketch -->
    <title>icon-twitter--w</title>
    <desc>Created with Sketch.</desc>
    <defs></defs>
    <g id="componer" stroke="none" stroke-width="1" fill="none" fill-rule="evenodd" sketch:type="MSPage">
        <g id="icon-twitter--w" sketch:type="MSArtboardGroup" fill="#FFFFFF">
            <path d="M15,30 C23.2842717,30 30,23.2842717 30,15 C30,6.71572834 23.2842717,0 15,0 C6.71572834,0 6.66133815e-16,6.71572834 6.66133815e-16,15 C6.66133815e-16,23.2842717 6.71572834,30 15,30 Z M15,29 C22.7319869,29 29,22.7319869 29,15 C29,7.26801312 22.7319869,1 15,1 C7.26801312,1 1,7.26801312 1,15 C1,22.7319869 7.26801312,29 15,29 Z M15.3903023,12.4077153 L15.4255268,13.0024416 L14.8384508,12.929618 C12.7014939,12.6504607 10.834592,11.7037536 9.24948666,10.1137711 L8.47454624,9.32484846 L8.27494042,9.90743745 C7.85224564,11.2061255 8.12230061,12.5776371 9.0029147,13.5000697 C9.47257555,14.009835 9.36690187,14.0826587 8.55673692,13.7792269 C8.27494042,13.6821287 8.02836846,13.6093051 8.00488539,13.6457169 C7.92269478,13.7306778 8.20449128,14.8351694 8.42758017,15.2721112 C8.73285974,15.8789748 9.35516034,16.473701 10.0361686,16.8256819 L10.6115031,17.1048392 L9.93049487,17.1169764 C9.27296967,17.1169764 9.24948666,17.1291137 9.3199358,17.3839963 C9.55476623,18.172919 10.4823464,19.0103907 11.5156002,19.3745088 L12.2435745,19.6293915 L11.6095324,20.0177842 C10.6702107,20.5760986 9.5665077,20.8916677 8.46280471,20.9159422 C7.93443625,20.9280795 7.5,20.9766285 7.5,21.0130404 C7.5,21.1344131 8.93246556,21.8141003 9.76611359,22.0811202 C12.2670576,22.8700429 15.2376625,22.5301992 17.4685515,21.1829622 C19.0536569,20.2241177 20.6387623,18.3185663 21.3784781,16.473701 C21.7776898,15.4905821 22.1769015,13.694266 22.1769015,12.8325198 C22.1769015,12.2742053 22.2121261,12.2013817 22.8696512,11.5338318 C23.2571215,11.1454391 23.6211087,10.7206346 23.6915577,10.5992619 C23.808973,10.3686538 23.7972315,10.3686538 23.1984139,10.5749873 C22.2003846,10.9391055 22.0594863,10.8905564 22.5526302,10.3443792 C22.9166174,9.95598653 23.3510536,9.25202485 23.3510536,9.04569121 C23.3510536,9.00927943 23.1749308,9.0699658 22.975325,9.17920119 C22.7639776,9.30057393 22.2943167,9.48263298 21.9420711,9.59186842 L21.3080289,9.79820201 L20.7326944,9.39767207 C20.4156733,9.17920119 19.9694955,8.93645582 19.7346651,8.86363215 C19.1358475,8.6937104 18.2200089,8.71798494 17.6798989,8.91218123 C16.2122087,9.45835844 15.2846285,10.8662819 15.3903023,12.4077153 C15.3903023,12.4077153 15.2846285,10.8662819 15.3903023,12.4077153 Z" id="Oval-1" sketch:type="MSShapeGroup"></path>
        </g>
    </g>
</svg>