<?xml version="1.0" encoding="UTF-8" standalone="no"?>
<svg width="30px" height="30px" viewBox="0 0 30 30" version="1.1" xmlns="http://www.w3.org/2000/svg" xmlns:xlink="http://www.w3.org/1999/xlink" xmlns:sketch="http://www.bohemiancoding.com/sketch/ns">
    <!-- Generator: Sketch 3.3.3 (12072) - http://www.bohemiancoding.com/sketch -->
    <title>icon-fb--g</title>
    <desc>Created with Sketch.</desc>
    <defs></defs>
    <g id="componer" stroke="none" stroke-width="1" fill="none" fill-rule="evenodd" sketch:type="MSPage">
        <g id="icon-fb--g" sketch:type="MSArtboardGroup" fill="#87919A">
            <path d="M15,30 C23.2842717,30 30,23.2842717 30,15 C30,6.71572834 23.2842717,0 15,0 C6.71572834,0 0,6.71572834 0,15 C0,23.2842717 6.71572834,30 15,30 Z M15,29 C22.7319869,29 29,22.7319869 29,15 C29,7.26801312 22.7319869,1 15,1 C7.26801312,1 1,7.26801312 1,15 C1,22.7319869 7.26801312,29 15,29 Z M15.8183679,23.75 L15.8183679,14.9989754 L18.4069562,14.9989754 L18.75,11.9833239 L15.8183679,11.9833239 L15.8227659,10.4739613 C15.8227659,9.68743289 15.9028461,9.26599302 17.1133951,9.26599302 L18.731675,9.26599302 L18.731675,6.25 L16.1427203,6.25 C13.0329693,6.25 11.9384175,7.71291544 11.9384175,10.1730792 L11.9384175,11.9836654 L10,11.9836654 L10,14.9993169 L11.9384175,14.9993169 L11.9384175,23.75 L15.8183679,23.75 Z" id="Oval-1" sketch:type="MSShapeGroup"></path>
        </g>
    </g>
</svg>