<?xml version="1.0" encoding="UTF-8" standalone="no"?>
<svg width="23px" height="44px" viewBox="0 0 23 44" version="1.1" xmlns="http://www.w3.org/2000/svg" xmlns:xlink="http://www.w3.org/1999/xlink" xmlns:sketch="http://www.bohemiancoding.com/sketch/ns">
    <!-- Generator: Sketch 3.3.3 (12072) - http://www.bohemiancoding.com/sketch -->
    <title>mapmarker</title>
    <desc>Created with Sketch.</desc>
    <defs>
        <radialGradient cx="50%" cy="25.0854492%" fx="50%" fy="25.0854492%" r="50.2502441%" id="radialGradient-1">
            <stop stop-color="#000000" offset="0%"></stop>
            <stop stop-color="#000000" stop-opacity="0" offset="100%"></stop>
        </radialGradient>
        <filter x="-50%" y="-50%" width="200%" height="200%" filterUnits="objectBoundingBox" id="filter-2">
            <feGaussianBlur stdDeviation="1.40625" in="SourceGraphic" result="blur"></feGaussianBlur>
        </filter>
    </defs>
    <g id="componer" stroke="none" stroke-width="1" fill="none" fill-rule="evenodd" sketch:type="MSPage">
        <g id="mapmarker" sketch:type="MSArtboardGroup">
            <g id="Shape-+-Rectangle" sketch:type="MSLayerGroup" transform="translate(2.000000, 5.000000)">
                <circle id="Oval-2" fill="#FFFFFF" sketch:type="MSShapeGroup" cx="9.5" cy="9.5" r="7.5"></circle>
                <path d="M0,9.1 C0,14.14 9.5,28 9.5,28 C9.5,28 19,14.14 19,9.1 C19,4.0775 14.7509091,0 9.5,0 C4.24909091,0 0,4.0775 0,9.1 L0,9.1 Z M3,9.20200573 C3,5.90544413 6.12893983,3 9.51862464,3 C12.9083095,3 16,5.94269341 16,9.22063037 C16,12.517192 12.8896848,16 9.48137536,16 C6.09169054,16 3,12.4985673 3,9.20200573 L3,9.20200573 Z" id="Shape" stroke="#FFFFFF" fill="#7FAD41" sketch:type="MSShapeGroup"></path>
            </g>
            <ellipse id="Oval-1" fill="url(#radialGradient-1)" filter="url(#filter-2)" sketch:type="MSShapeGroup" cx="11.5" cy="42" rx="9.5" ry="2"></ellipse>
            <circle id="Oval-3" fill="#2C3E50" sketch:type="MSShapeGroup" cx="11.5" cy="14.5" r="2.5"></circle>
        </g>
    </g>
</svg>